<svg width="24" height="24" viewBox="0 0 24 24" fill="none" xmlns="http://www.w3.org/2000/svg">
<mask id="mask0_1582_18842" style="mask-type:alpha" maskUnits="userSpaceOnUse" x="0" y="0" width="24" height="24">
<rect width="24" height="24" fill="#D9D9D9"/>
</mask>
<g mask="url(#mask0_1582_18842)">
<path d="M17.625 17.625C18.0417 17.625 18.396 17.4793 18.688 17.188C18.9793 16.896 19.125 16.5417 19.125 16.125C19.125 15.7083 18.9793 15.354 18.688 15.062C18.396 14.7707 18.0417 14.625 17.625 14.625C17.2083 14.625 16.854 14.7707 16.562 15.062C16.2707 15.354 16.125 15.7083 16.125 16.125C16.125 16.5417 16.2707 16.896 16.562 17.188C16.854 17.4793 17.2083 17.625 17.625 17.625ZM17.625 20.625C18.125 20.625 18.5917 20.5083 19.025 20.275C19.4583 20.0417 19.8167 19.7167 20.1 19.3C19.7167 19.0667 19.3167 18.896 18.9 18.788C18.4833 18.6793 18.0583 18.625 17.625 18.625C17.1917 18.625 16.7667 18.6793 16.35 18.788C15.9333 18.896 15.5333 19.0667 15.15 19.3C15.4333 19.7167 15.7917 20.0417 16.225 20.275C16.6583 20.5083 17.125 20.625 17.625 20.625ZM9 9H15V7C15 6.16667 14.7083 5.45833 14.125 4.875C13.5417 4.29167 12.8333 4 12 4C11.1667 4 10.4583 4.29167 9.875 4.875C9.29167 5.45833 9 6.16667 9 7V9ZM12.675 21H6.625C6.15833 21 5.771 20.846 5.463 20.538C5.15433 20.2293 5 19.8417 5 19.375V10.625C5 10.1583 5.15433 9.77067 5.463 9.462C5.771 9.154 6.15833 9 6.625 9H8V7C8 5.88333 8.38767 4.93733 9.163 4.162C9.93767 3.38733 10.8833 3 12 3C13.1167 3 14.0627 3.38733 14.838 4.162C15.6127 4.93733 16 5.88333 16 7V9H17.375C17.8417 9 18.2293 9.154 18.538 9.462C18.846 9.77067 19 10.1583 19 10.625V11.8C18.8667 11.75 18.7127 11.7127 18.538 11.688C18.3627 11.6627 18.1833 11.65 18 11.65V10.625C18 10.4417 17.9417 10.2917 17.825 10.175C17.7083 10.0583 17.5583 10 17.375 10H6.625C6.44167 10 6.29167 10.0583 6.175 10.175C6.05833 10.2917 6 10.4417 6 10.625V19.375C6 19.5583 6.05833 19.7083 6.175 19.825C6.29167 19.9417 6.44167 20 6.625 20H12.15C12.2 20.2 12.2667 20.3793 12.35 20.538C12.4333 20.696 12.5417 20.85 12.675 21ZM17.625 21.625C16.5083 21.625 15.5627 21.2333 14.788 20.45C14.0127 19.6667 13.625 18.725 13.625 17.625C13.625 16.5083 14.0127 15.5623 14.788 14.787C15.5627 14.0123 16.5083 13.625 17.625 13.625C18.725 13.625 19.6667 14.0123 20.45 14.787C21.2333 15.5623 21.625 16.5083 21.625 17.625C21.625 18.725 21.2333 19.6667 20.45 20.45C19.6667 21.2333 18.725 21.625 17.625 21.625Z" fill="white"/>
</g>
</svg>
